# xmcd
#
# Track frame offsets:
# 150
# 11897
# 23582
# 37355
# 49132
# 62332
# 74567
# 87682
# 100457
# 114777
# 127485
# 141640
# 152360
# 163390
# 176465
# 188102
# 201350
# 212780
# 225612
#
# Disc length: 3176 seconds
#
#
# Revision: 1
# Processed by: cddbd v1.5.2PL0 Copyright (c) Steve Scherf et al.
# Submitted via: FreeRIP 2.951 
#
DISCID=220c6613
DTITLE=Sister Rosetta Tharpe - Integrale Volume I (1938-1943) (1 of 2)
DYEAR=1998
DGENRE=Gospel
TTITLE0=Rock Me
TTITLE1=That's All
TTITLE2=My Man And I
TTITLE3=The Lnesome Road
TTITLE4=Bring Back Those Happy Days
TTITLE5=This Train
TTITLE6=I Looked Down The Line
TTITLE7=God Don't Like It
TTITLE8=Beams Of Heaven
TTITLE9=Saviour Don't Pass Me By
TTITLE10=The End Of My Journey
TTITLE11=Sit Down
TTITLE12=There Is Something Within' Me
TTITLE13=Stand By Me
TTITLE14=Trouble In Mind
TTITLE15=Rock Daniel
TTITLE16=Four Or Five Times
TTITLE17=Shout, Sister, Shout
TTITLE18=The Lonesome Road
EXTD=
EXTT0=
EXTT1=
EXTT2=
EXTT3=
EXTT4=
EXTT5=
EXTT6=
EXTT7=
EXTT8=
EXTT9=
EXTT10=
EXTT11=
EXTT12=
EXTT13=
EXTT14=
EXTT15=
EXTT16=
EXTT17=
EXTT18=
PLAYORDER=
